<?xml version="1.0" encoding="UTF-8"?>
<svg id="Layer_2" data-name="Layer 2" xmlns="http://www.w3.org/2000/svg" viewBox="0 0 952.88 937.53">
  <defs>
    <style>
      .cls-1 {
        fill: none;
        stroke: #6da3d8;
        stroke-miterlimit: 10;
        stroke-width: 2px;
      }
    </style>
  </defs>
  <g id="Layer_1-2" data-name="Layer 1">
    <g>
      <path class="cls-1" d="M783.02,637.62c-73.32,0-137.83-46.9-160.51-116.69-13.93-42.89-10.33-88.63,10.15-128.8,20.45-40.17,55.36-69.98,98.25-83.92,16.96-5.5,34.51-8.29,52.17-8.29,73.34,0,137.86,46.89,160.54,116.67,28.74,88.53-19.86,183.95-108.39,212.72-16.96,5.52-34.51,8.31-52.2,8.31Z"/>
      <path class="cls-1" d="M752.72,504.54c-46.56,0-89.9-18.52-122.05-52.14-64.3-67.28-61.91-174.36,5.37-238.67,31.56-30.18,72.97-46.8,116.63-46.8,46.54,0,89.88,18.52,122.03,52.16,64.33,67.28,61.94,174.34-5.34,238.67-31.56,30.18-72.99,46.79-116.63,46.79Z"/>
      <path class="cls-1" d="M667.6,397.9c-20.23,0-40.17-3.64-59.28-10.81-87.17-32.7-131.45-130.21-98.73-217.36,24.58-65.51,88.11-109.53,158.04-109.53,20.23,0,40.2,3.64,59.31,10.81,87.14,32.7,131.42,130.21,98.73,217.35-24.61,65.52-88.13,109.55-158.07,109.55Z"/>
      <path class="cls-1" d="M544.47,338.66c-41.95,0-82.24-15.62-113.4-43.96-31.36-28.51-50.74-67.48-54.53-109.74C368.19,92.26,436.83,10.05,529.55,1.71c5.07-.46,10.23-.7,15.32-.7,41.95,0,82.23,15.62,113.41,43.96,31.34,28.51,50.72,67.48,54.51,109.73,8.35,92.71-60.28,174.92-153,183.26-5.07,.46-10.23,.7-15.32,.7Z"/>
      <path class="cls-1" d="M408.37,338.67c-59.17,0-114.75-31.52-145.07-82.26-47.74-79.91-21.58-183.75,58.33-231.49,26.19-15.65,56.07-23.92,86.43-23.92,59.16,0,114.75,31.52,145.08,82.25,23.11,38.71,29.79,84.11,18.76,127.82-11,43.73-38.4,80.55-77.1,103.67-26.19,15.65-56.08,23.93-86.43,23.93Z"/>
      <path class="cls-1" d="M285.43,66.24c-54.95,0-105.79,27.33-136.02,73.12-49.45,74.92-28.73,176.1,46.19,225.55,26.7,17.63,57.66,26.94,89.53,26.94,54.93,0,105.79-27.33,136.01-73.13,49.45-74.92,28.73-176.09-46.17-225.54-26.72-17.63-57.67-26.94-89.53-26.94Z"/>
      <path class="cls-1" d="M200.4,504.56c-7.6,0-15.28-.52-22.87-1.56-92.24-12.49-157.12-97.7-144.62-189.94,11.29-83.33,83.11-146.16,167.07-146.16,7.6,0,15.3,.52,22.87,1.54,92.24,12.49,157.11,97.7,144.62,189.94-11.29,83.33-83.12,146.18-167.07,146.18Z"/>
      <path class="cls-1" d="M169.79,637.62c-73.33,0-137.83-46.9-160.51-116.69-28.77-88.53,19.86-183.95,108.38-212.72,16.96-5.52,34.53-8.31,52.2-8.31,73.33,0,137.84,46.9,160.51,116.69,13.94,42.89,10.34,88.63-10.13,128.82-20.48,40.17-55.36,69.96-98.25,83.9-16.96,5.52-34.52,8.31-52.2,8.31Z"/>
      <path class="cls-1" d="M200.22,770.61c-46.55,0-89.89-18.52-122.04-52.16-64.33-67.27-61.93-174.35,5.35-238.67,31.56-30.16,72.98-46.79,116.63-46.79,46.53,0,89.89,18.52,122.04,52.16,64.31,67.28,61.91,174.35-5.37,238.67-31.56,30.16-72.97,46.79-116.62,46.79Z"/>
      <path class="cls-1" d="M285.24,877.34c-20.22,0-40.18-3.64-59.28-10.81-87.15-32.7-131.43-130.2-98.73-217.35,24.58-65.52,88.1-109.54,158.07-109.54,20.23,0,40.17,3.64,59.28,10.8,42.23,15.85,75.73,47.18,94.39,88.24,18.65,41.05,20.2,86.91,4.35,129.13-24.58,65.52-88.1,109.53-158.07,109.53Z"/>
      <path class="cls-1" d="M408.02,936.51c-41.96,0-82.24-15.6-113.41-43.96-31.36-28.51-50.72-67.48-54.52-109.73-8.35-92.7,60.29-174.91,153-183.26,5.08-.46,10.24-.7,15.32-.7,41.96,0,82.23,15.62,113.41,43.96,31.34,28.51,50.72,67.5,54.53,109.74,8.35,92.71-60.3,174.92-153.01,183.25-5.09,.46-10.24,.7-15.33,.7Z"/>
      <path class="cls-1" d="M544.82,936.53c-59.16,0-114.75-31.52-145.07-82.25-23.12-38.71-29.79-84.11-18.77-127.82,11.01-43.73,38.4-80.54,77.1-103.67,26.19-15.64,56.09-23.92,86.44-23.92,59.15,0,114.75,31.52,145.05,82.26,23.13,38.71,29.82,84.11,18.79,127.82-11,43.73-38.4,80.55-77.1,103.67-26.19,15.66-56.09,23.92-86.44,23.92Z"/>
      <path class="cls-1" d="M667.46,877.31c-33.04,0-65.16-9.66-92.86-27.94-77.68-51.28-99.15-156.2-47.87-233.88,31.34-47.49,84.05-75.84,141.03-75.84,33.06,0,65.16,9.68,92.85,27.95,77.69,51.28,99.16,156.2,47.88,233.88-31.34,47.47-84.05,75.83-141.03,75.83Z"/>
      <path class="cls-1" d="M752.91,770.64c-7.59,0-15.3-.52-22.86-1.56-44.68-6.05-84.35-29.15-111.67-65.01-27.32-35.88-39.02-80.24-32.95-124.92,11.27-83.33,83.11-146.16,167.06-146.16,7.6,0,15.3,.51,22.86,1.54,92.24,12.49,157.13,97.7,144.62,189.94-11.27,83.33-83.11,146.18-167.06,146.18Z"/>
    </g>
  </g>
</svg>