<?xml version="1.0" encoding="UTF-8"?>
<svg id="Layer_2" data-name="Layer 2" xmlns="http://www.w3.org/2000/svg" viewBox="0 0 101.77 114.48">
  <defs>
    <style>
      .cls-1, .cls-2, .cls-3 {
        stroke-linejoin: round;
      }

      .cls-1, .cls-2, .cls-3, .cls-4 {
        fill: none;
        stroke: #6da4da;
      }

      .cls-1, .cls-2, .cls-4 {
        stroke-width: .25px;
      }

      .cls-2 {
        stroke-dasharray: 0 0 1.5 1;
      }

      .cls-3 {
        stroke-width: .75px;
      }

      .cls-4 {
        stroke-miterlimit: 10;
      }
    </style>
  </defs>
  <g id="Layer_1-2" data-name="Layer 1">
    <g>
      <path class="cls-2" d="M50.89,9.79c26.2,0,47.45,21.25,47.45,47.45s-21.25,47.45-47.45,47.45S3.43,83.44,3.43,57.24,24.68,9.79,50.89,9.79Z"/>
      <polygon class="cls-1" points="50.89 9.81 71.43 21.66 91.96 33.52 91.96 57.24 91.96 80.96 71.43 92.81 50.89 104.67 30.35 92.81 9.81 80.96 9.81 57.24 9.81 33.52 30.35 21.66 50.89 9.81"/>
      <circle class="cls-4" cx="50.89" cy="104.67" r="9.68"/>
      <path class="cls-4" d="M83.58,76.12c2.67-4.63,8.6-6.22,13.22-3.54,4.63,2.67,6.22,8.6,3.54,13.22-2.67,4.63-8.6,6.22-13.22,3.54-4.63-2.67-6.22-8.6-3.54-13.22Z"/>
      <path class="cls-4" d="M83.58,38.36c-2.67-4.63-1.09-10.55,3.54-13.23,4.63-2.67,10.55-1.09,13.22,3.54,2.67,4.63,1.09,10.55-3.54,13.22-4.63,2.67-10.55,1.09-13.22-3.54Z"/>
      <path class="cls-1" d="M50.89,19.49c-5.35,0-9.68-4.34-9.68-9.68S45.54,.12,50.89,.12s9.68,4.34,9.68,9.68-4.34,9.68-9.68,9.68Z"/>
      <path class="cls-4" d="M18.19,38.36c-2.67,4.63-8.6,6.22-13.22,3.54C.34,39.23-1.25,33.31,1.42,28.68c2.67-4.63,8.6-6.22,13.22-3.54,4.63,2.67,6.22,8.6,3.54,13.23Z"/>
      <path class="cls-4" d="M18.19,76.12c2.67,4.63,1.09,10.55-3.54,13.22-4.63,2.67-10.55,1.09-13.22-3.54-2.67-4.63-1.09-10.55,3.54-13.22,4.63-2.67,10.55-1.09,13.22,3.54Z"/>
      <polygon class="cls-1" points="50.89 9.81 71.43 45.38 91.96 80.96 50.89 80.96 9.81 80.96 30.35 45.38 50.89 9.81"/>
      <polygon class="cls-4" points="50.89 104.67 71.43 69.1 91.96 33.52 50.89 33.52 9.81 33.52 30.35 69.1 50.89 104.67"/>
      <circle class="cls-1" cx="50.89" cy="57.24" r="23.72"/>
      <path class="cls-1" d="M50.89,47.06c5.62,0,10.18,4.56,10.18,10.18s-4.56,10.18-10.18,10.18-10.18-4.56-10.18-10.18,4.56-10.18,10.18-10.18Z"/>
      <circle class="cls-2" cx="50.89" cy="47.06" r="10.18" transform="translate(-.44 93.64) rotate(-84.98)"/>
      <path class="cls-2" d="M68.51,47.06c2.81,4.87,1.14,11.09-3.73,13.9-4.87,2.81-11.09,1.14-13.9-3.73-2.81-4.87-1.14-11.09,3.73-13.9,4.87-2.81,11.09-1.14,13.9,3.73Z"/>
      <path class="cls-2" d="M68.51,67.42c-2.81,4.87-9.04,6.54-13.9,3.73-4.87-2.81-6.54-9.04-3.73-13.9,2.81-4.87,9.04-6.54,13.9-3.73,4.87,2.81,6.54,9.04,3.73,13.9Z"/>
      <circle class="cls-2" cx="50.89" cy="67.42" r="10.18" transform="translate(-24.79 104.93) rotate(-79.32)"/>
      <path class="cls-2" d="M33.26,67.42c-2.81-4.87-1.14-11.09,3.73-13.9,4.87-2.81,11.09-1.14,13.9,3.73,2.81,4.87,1.14,11.09-3.73,13.9-4.87,2.81-11.09,1.14-13.9-3.73Z"/>
      <path class="cls-2" d="M33.26,47.06c2.81-4.87,9.04-6.54,13.9-3.73,4.87,2.81,6.54,9.04,3.73,13.9-2.81,4.87-9.04,6.54-13.9,3.73-4.87-2.81-6.54-9.04-3.73-13.9Z"/>
      <path class="cls-3" d="M9.81,34.64c-.61,0-1.11-.5-1.11-1.11,0-.61,.5-1.11,1.11-1.11,.61,0,1.11,.5,1.11,1.11,0,.61-.5,1.11-1.11,1.11Z"/>
      <path class="cls-3" d="M49.92,10.36c-.31-.53-.12-1.21,.41-1.52,.53-.31,1.21-.12,1.52,.41,.31,.53,.12,1.21-.41,1.52-.53,.31-1.21,.13-1.52-.41Z"/>
      <path class="cls-3" d="M91,32.97c.31-.53,.99-.71,1.52-.41,.53,.31,.71,.99,.41,1.52-.31,.53-.99,.71-1.52,.41-.53-.31-.71-.99-.41-1.52Z"/>
      <path class="cls-3" d="M91.96,79.84c.61,0,1.11,.5,1.11,1.11,0,.61-.5,1.11-1.11,1.11-.61,0-1.11-.5-1.11-1.11,0-.61,.5-1.11,1.11-1.11Z"/>
      <path class="cls-3" d="M51.85,104.12c.31,.53,.12,1.21-.41,1.52-.53,.31-1.21,.12-1.52-.41-.31-.53-.12-1.21,.41-1.52,.53-.31,1.21-.12,1.52,.41Z"/>
      <path class="cls-3" d="M10.77,81.51c-.31,.53-.99,.71-1.52,.41-.53-.31-.71-.99-.41-1.52,.31-.53,.99-.71,1.52-.41,.53,.31,.71,.99,.41,1.52Z"/>
    </g>
  </g>
</svg>