<?xml version="1.0" encoding="UTF-8"?>
<svg id="Layer_2" data-name="Layer 2" xmlns="http://www.w3.org/2000/svg" viewBox="0 0 345 345">
  <defs>
    <style>
      .cls-1 {
        fill: none;
        stroke: #000;
        stroke-miterlimit: 10;
        stroke-width: 9px;
      }

      .cls-2 {
        fill-rule: evenodd;
      }
    </style>
  </defs>
  <g id="Layer_1-2" data-name="Layer 1">
    <circle class="cls-1" cx="172.5" cy="172.5" r="168"/>
    <path class="cls-2" d="M336.5,172.5c0-90.57-73.43-164-164-164-3.19,0-6.35,.1-9.49,.28l-22.2,4.34c1.72-.33,3.47-.6,5.27-.78,6.21-.64,15.16-4.29,20.59,.32,3.86,3.28,4.84,10.44,1.39,14.32-4.16,4.67-11.9,4.56-17.52,5.52-16,2.75-34.55,8.39-45.71,14.92s-5.73,1.81-19.15,12.56-18.38,17.1-18.38,17.1c0,0-18.94,24.09-25.51,38.42-3.16,6.89-5.45,14.05-7.45,21.37-1.47,5.37-5.9,16.58-3.11,22,1.66,3.23,2.41-4.15,2.48-4.81,.41-3.9,1.08-7.77,1.98-11.59,1.81-7.71,4.42-15.32,7.38-22.64,5.74-14.14,14.46-28.64,24.7-39.84,19.37-21.2,44.5-36.95,72.18-43.62,15.47-3.73,30.62-5.23,46.45-3.64,16.15,1.62,31.21,6.86,46.07,13.11,29.82,12.56,53.88,39.13,67.88,68.39,3.43,7.16,6.05,14.72,8.07,22.42,2.02,7.73,5.09,17.56,3.5,25.59-2.06,10.46-17.28,10.56-19.39,.06-1.66-8.25-1.84-16.17-4.46-24.31-2.48-7.73-5.51-14.74-9.07-21.81-6.89-13.68-16.99-25.53-28.69-35.13-9.48-7.78-20.24-14.95-31.61-19.45-5.53-2.19-11.38-3.72-17.12-5.2-3.08-.8-17.19-4.01-17.57-2.06s13.59,3.18,19.74,4.95c8.4,2.41,16.53,5.02,24.17,9.41,13.48,7.75,25.12,16.82,35.36,28.77,20.44,23.84,30.25,58.1,26.02,89.51-4.25,31.58-20.07,58.21-44.29,77.98-11.87,9.68-25.44,16.88-39.96,20.91-3.22,.89-9.8,2.04-9.8,2.04,0,0-7.7,.71-6.71,3.13s10.47-1.07,10.47-1.07c0,0,8.67-2.43,12.9-3.85,27.68-9.29,51.01-28.85,65.74-54.62,7.37-12.88,12.75-28.07,14.55-42.87,.72-5.88,.62-12.12,7.57-13.5,5.28-1.05,11.25,1.87,12.18,7.63,.6,3.7-.85,10.92-.85,10.92,0,0-1.09,7.51-1.96,11.17-1.87,7.88-4.77,16.17-8.03,23.56-6.74,15.28-16.33,30.02-27.75,41.9-10.89,11.33-23.66,20.01-37.52,27.5-7.26,3.92-15.46,6.62-23.85,9.16-6.19,1.87-18.6,4.35-18.6,4.35,0,0-4.2,.21-3.91,2.03s14.69-1.47,18.05-2.33c6.99-1.79,14.17-3.77,20.81-6.62,13.64-5.85,28.46-14.5,39.49-24.56,20.51-18.72,35.56-43.91,42.83-71.05,8.24-30.79,5.43-62.13-6.45-91.43-6.02-14.85-14.74-29.21-25.83-40.67-11.38-11.76-23.42-20.7-37.58-28.67-13.8-7.77-29.96-13.75-45.7-16.09-6.4-.95-15.62,0-18.92-6.83-3.37-6.99-.15-13.17,7.36-14.29,6.5-.97,14.07,1.05,20.44,2.29,7.1,1.39,14.14,3.55,21.03,5.74,14.85,4.71,30.03,12.03,42.52,21.6,24.94,19.11,45.43,43.71,57.03,73.52,6.12,15.72,9.99,32.48,10.6,49.41,.31,8.72-.17,17.42-.9,26.1-.33,3.94-.73,7.88-1.38,11.78-.65,3.9-2.46,11.33-2.46,11.33l-3.23,10.82-3.09,9.31-4.92,9.98s-2.89,4.74-4.2,7.91c-6.04,14.6-17.79,27.89-28.83,38.47-23.92,22.91-53.69,39.04-86.15,44.48-7.63,1.28-15.35,1.91-23.07,2.11-1.87,.05-3.74,.07-5.61,.06-2.77-.01-2.02-1.22-2.24-3.71-.44-4.74-.56-9.51-.61-14.27-.08-8.29,.03-16.57,.02-24.86,0-5.65-1.93-15.42,1.01-20.46,1.42-2.44,4.86-1.94,7.2-2.17,1.32-.12,7.52-.7,9.54-1.01,8.73-1.34,17.1-3.85,25.38-6.92,6.71-2.49,14.21-6.94,19.65-11.61,2.85-2.45,6.59-4.23,8.89-7.16,2.62-3.35,5.85-6.11,8.78-9.16,4.37-7.04,9.22-13.28,12.64-20.89,3.41-7.6,6.52-15.52,7.99-23.78,1.04-5.83-2.62-7.15-2.91-.91-.35,7.49-4.08,15.71-7.16,22.39-12.92,28-37.86,49.08-67.92,54.84-5.43,1.04-13.95,2.77-19.29,.98-6.02-2.02-3.84-16.68-3.9-21.68-.2-17.74,.57-35.48,.09-53.22-3.47-1.78-3.48,2.8-3.88,4.61-.42,1.9-1.4,3.63-2.89,4.87-3.11,2.58-7.68,2.71-11.29,1.25-3.9-1.58-6.27-4.92-6.51-9.2-.16-2.78,.42-5.7,2.18-7.9,1.89-2.36,5.69-2.13,7.03-4.05,2.24-3.2-1.74-3.49-3.73-2.35-2.69,1.55-6.05,1.14-8.67-.36-5.17-2.96-7.04-8.77-5.06-14.36,1.79-5.04,6.32-7.93,11.53-7.08,2.65,.43,3.65,2.18,5.58,3.77,2.37,1.97,5.2-2.05,2.11-3.33-9.8-4.06-5.91-20.46,4.1-21.65,5.37-.64,12.22,3.76,12.36,9.77,.04,1.57-1.17,4.34,.03,5.68,2.24,2.49,3.34-2.04,3.5-3.34,.55-4.7,.67-8.34,5.43-10.53,4.09-1.88,9.65-1.56,12.99,1.73,3.37,3.32,3.77,10.18,.99,13.98-1.45,1.98-3.65,3.21-5.82,4.17-1.3,4.41,3.96,3.41,5.67,1.41,3.56-4.15,11.24-1.46,14.62,1.76,3.88,3.71,3.26,10.15,.51,14.31-2.51,3.8-8.18,6.97-12.56,4.38-1.14-.68-6.43-3.01-4.7,1.11,1.18,2.81,3.8,.76,6.07,2.19,9.46,6.01,3.4,21.52-7.32,20.31-5.01-.56-10.72-4.84-9.3-10.64-3.74-4.91-4.01,3.87-4.12,5.85-.26,5.13-.29,10.28-.23,15.42,.1,8.73,.47,17.46,.37,26.19-.05,3.98-.5,8-.34,11.97,.07,1.69,0,4.12,1.2,4.92s5.38,.15,8.05-.08c14.09-1.25,28.17-8.23,39.42-16.8,10.29-7.84,18.54-18.21,24.27-29.95,2.89-5.94,5.15-12.19,6.82-18.6,1.81-6.96,1.22-14.16,8.97-16.82,4.89-1.68,11.2,2.38,12.38,7.57,1.6,7.05-1.72,16.61-4.05,23.17-5.48,15.43-13.23,28.88-24.4,40.76-10.62,11.29-23.86,20.47-38.2,25.94-7.42,2.83-22.95,5.13-22.95,5.13,0,0-6.66,.75-9.28,1.74-3.17,1.21-2.04,7.87-2.06,10.59-.07,7.38,.13,14.76,.02,22.13-.05,3.43-.77,7-.29,10.42,.73,5.15,7.51,3.41,11.54,3.18,16.07-.92,33.33-5.42,47.76-12.7,29.97-15.12,54.45-35.98,71.03-66.11,16.03-29.12,22.56-63.5,17.63-96.65-5.04-33.9-22.18-65.85-46.82-88.96-6.21-5.82-12.79-11.04-19.99-15.49-4.14-2.55-8.3-5.06-12.46-7.57-3.61-2.17-18.53-8.49-22.04-9.51-4.18-1.21-8.25-2.8-12.43-4.03-7.72-2.27-26.57-5.73-26.7-3.78s5.31,1.75,7.1,1.87c3.93,.26,7.57,1.41,11.43,2.19,8.05,1.64,15.27,4.13,23.01,6.84,15.77,5.53,29.65,13.99,42.62,24.71,24.71,20.42,43.62,48.54,51.03,80.42,7.09,30.48,5.45,63.74-7.2,92.19-6.66,14.93-13.56,28.5-23.98,41.15-9.68,11.75-21.38,21.61-33.93,29.98-6.21,4.14-12.58,7.07-19.12,10.5-3.32,1.74-17.5,7.11-21.21,8.16-9.26,2.62-34.95,11.36-34.46-6.13,.18-6.41,4.14-8.86,9.93-9.72,7.28-1.09,14.24-2,21.35-4.14,14.27-4.3,27.83-11.02,39.96-19.83,12.42-9.02,22.85-20.41,31.32-33.38,8.68-13.3,17.78-39.3,18.73-42.38s1.97-10.94,1.97-10.94c0,0,1.82-9.63-1.26-7.69-1.65,1.04-1.43,5.68-1.74,7.38-.29,1.6-.54,6.81-2.1,12.66-1.94,7.27-5.36,15.53-6.99,19.07-3.54,7.66-7.54,15.02-12.23,22-8.83,13.13-19.54,24.77-32.58,33.52-6.53,4.38-13.42,8.17-20.51,11.49-3.4,1.59-7.04,3.62-10.7,4.46-3.97,.92-7.63,2.59-11.57,3.44-5.93,1.27-13.42,3.48-18.75,.07-4.05-2.59-6.08-9.05-3.19-13.3,4.71-6.93,16.91-6.31,24.06-8,5.76-1.36,17.8-7.49,17.8-7.49,0,0,12.83-7.67,19.21-13.14,12.17-10.46,27.77-32.75,29.51-37.03s3.14-7.54,4.83-12.51c.64-1.88,2.78-7.56,3.83-13.77,1.19-6.98,1.28-14.64,1.45-18.31,.67-14.4-2.18-29.1-7.43-42.45-9.32-23.7-27.23-42.09-48.44-54.99-5.99-3.65-12.48-6.2-19.04-8.62-8.29-3.05-17.26-3.58-25.79-5.7-5.48-1.37-8.03-8.86-5.8-14.04,3.03-7.05,11.5-5.32,17.11-3.94,3.19,.79,6.18,.93,9.34,1.91,3.72,1.16,7.48,2.18,11.28,3.02,6.55,2.32,12.95,5.05,19.14,8.25,11.36,5.87,21.95,13.33,31.14,22.35,19.35,19,32.82,45.38,36.42,72.58,.3,2.28,.32,7.16,2.33,6.91s-.59-15.9-2.06-21.13c-2.32-8.26-5.57-16.22-9.32-23.9-7.23-14.82-16.87-27.89-28.96-38.92-22.93-20.93-53.34-32.94-84.05-34.72-32.36-1.88-66.82,11.13-91.45,32.43-16.11,12.24-27.12,32.14-27.12,32.14,0,0-7.02,12.47-9.4,18.49-3.16,7.99-6.04,16.66-7.27,25.22-1.15,8.04,.13,19.34-11.04,19.45-13,.13-8.84-16.65-7.59-24.58,3.68-23.36,14.3-44.75,28.35-63.32,12.39-16.38,29.93-30.8,47.48-41.02,9.72-5.66,20.13-10,30.96-12.84,4.98-1.3,9.92-2.82,15-3.69,.94-.16,3.32-.82,6.51-1.22,3.25-.41,7.35,.33,7.42-1.74s-7.63-.4-11.42,.06-7.5,1.67-11.16,2.6c-8,2.02-16,5.1-23.92,8.05-14.98,5.58-28.88,15.87-41.07,26.25-24.5,20.86-43.25,48.48-49.99,80.71-6.84,32.72-3.55,65.34,9.23,96,12.28,29.43,36.59,54.4,63.41,70.17,13.43,7.89,28.35,13.89,43.3,17.9,1.84,.49,5.49,2.53,6.71,.43s-4.3-2.6-4.82-2.73c-7.67-1.92-14.76-4.86-22.14-7.63-14.99-5.61-29.09-14.09-41.72-24.02-6.18-4.86-11.73-10.52-16.88-16.5-5.33-6.21-9.5-13.15-14.52-19.52-4.91-6.23-8.32-13.7-11.63-20.94-3.04-6.65-6.27-14.62-7.79-21.79-1.62-7.63-3.02-15.97-3.62-23.76-.52-6.77,2.99-13.47,10.52-13.15,9.23,.4,8.41,9.12,9.39,15.94,1.24,8.64,2.86,17.35,5.92,25.5,5.5,14.67,13.48,28.35,23.31,40.4,9.15,11.21,20.01,20.97,32.13,28.67,6.56,4.17,13.49,7.73,20.69,10.6,3.41,1.36,6.87,2.56,10.39,3.6,3.16,.94,10.87,3.39,11.38,1.84s-6.25-2.64-8.12-3.15c-3.82-1.05-7.6-2.25-11.33-3.61-7.64-2.78-15.06-7.43-22.14-11.48-14.16-8.1-25.87-20.49-35.65-33.58-19.54-26.14-28.99-59.84-23.74-92.65,5.06-31.64,20.95-61.22,45.33-81.59,12.4-10.36,26.1-17.32,41.05-22.86,6.81-2.52,14.09-3.84,21.14-5.5,4.9-1.16,11.44-2.67,15.13,1.95,5.27,6.59,1.39,14.09-8.16,16.34s-5.91,1.78-8.9,2.15c-3.74,.47-7.25,2.06-10.83,3.16-8.05,2.49-15.53,6.45-22.82,10.69-25.53,14.85-45.74,42.63-51.42,72.28-.41,2.15-1.6,5.56-.24,7.58,1.82,2.71,2.43-3.64,2.57-4.39,1.47-7.68,3.49-15.79,6.59-22.96,6.46-14.96,15.82-28.63,28.1-39.17,23.93-20.51,56.64-31.91,87.67-25.9,22.69,4.39,42.68,14.71,59.25,31.2,7.78,7.75,14.39,16.7,19.27,26.64,2.49,5.08,4.54,10.38,6.14,15.82,1.75,5.91,4.21,12.61,3.83,18.85-.35,5.79-2.71,10-8.59,11.04-6.06,1.07-11.43-3.85-11.38-10.12,.02-2.74-3.17-14.38-4.25-17.37-2.18-6.04-5.88-13.01-9.7-18.03-7.68-10.1-15.97-19-26.77-25.72-5.13-3.19-10.59-5.76-16.23-7.84-4.01-1.06-16.01-4.47-16.36-2.66s6.11,2.21,8.9,2.81c3.8,.81,6.73,2.72,10.31,3.84,7.55,2.35,14.48,6.63,20.57,11.71,11.38,9.49,20.66,21.98,26.15,35.94,11.81,30.02,3.24,69.41-21.31,90.38-10.89,9.3-21.71,16.27-35.71,19.95-4.77,1.26-9.56,.79-12.26-3.96-2.25-3.97-2.02-9.51,1.3-12.79,4.34-4.28,4.14-.42,17.25-6.52s12.58-7.23,18-12.65c4.76-4.76,8.79-10.55,11.96-16.53,1.72-3.24,3.14-6.66,4.09-10.22,.5-1.87,1.81-4.64,1.09-5.7s-2.46,0-3.01,1.33c-1.96,4.75-2.52,9.97-5.19,14.64-3.71,6.47-8.14,12.54-13.67,17.49-6.49,5.81-23.38,18.87-31.46,9.65-3.76-4.29-3.61-10.36,.09-14.48,2.52-2.81,6.64-2.69,9.76-4.45,3.12-1.76,6.33-3.95,9-6.35,10.46-9.38,15.8-24.37,12.91-38.39-2.65-12.86-11.77-24.81-23.86-29.97-5.56-2.37-11.18-1.21-14.03-7.85-2.41-5.62-.4-12.27,5.72-13.96,6.26-1.73,12.71,1.39,18.11,4.33,6.25,3.4,11.6,6.63,16.55,11.89,4.3,4.57,8,9.72,10.85,15.36,1.65,3.26,3,6.67,4.08,10.18,.55,1.81,.86,6.86,3.37,5.58s-3.36-14.41-5.68-18.51c-3.29-5.82-7-11.23-11.91-15.71-9.29-8.48-20.84-13.87-33.05-16.08-25.75-4.67-52.42,6.39-66.14,29.44-3.79,6.36-5.71,12.53-7.42,19.66-1.02,4.28-1.49,6.62-4.88,9.44-2.19,1.83-5.48,2.17-8.12,1.37-6.34-1.93-7.8-8.24-6.45-14.11,1.61-6.98,3.84-13.87,6.85-20.22,6.06-12.79,15.98-23.26,27.18-31.42,5.69-4.14,11.82-7.1,18.24-9.53,3.35-1.27,7.21-2.06,9.62-3.14s8.33-.88,7.77-2.97-12.78,1.66-12.78,1.66c0,0-9.11,3.74-13.7,6.11-8.37,4.31-16.13,9.63-22.82,16.38-13.82,13.95-23.07,33-24.42,52.97-1.32,19.56,3.48,39.81,15.04,55.53,5.71,7.76,12.19,14.78,19.97,20.39,3.16,2.28,21.12,12.65,23.14,10.78s-6.07-3.61-8.21-4.91-7.35-4.03-11.2-6.01c-5.48-3.99-17.34-16.41-17.34-16.41,0,0-10.15-13.6-12.97-21.62-2.12-6.04-7.88-18.99-3.55-24.77,3.52-4.7,11.74-6.85,15.61-1.37,3.39,4.8,3.36,12.08,5.37,17.54,2.82,7.64,7.37,14.8,12.56,20.98,2.41,2.87,17.55,14.04,19.73,12.9s-4.59-3.72-6.07-4.77c-2.66-1.91-5.21-3.99-7.6-6.25-5.3-5.02-9.8-10.93-13.1-17.52-7.27-14.49-8.24-31.4-3.47-46.86,4.47-14.49,14-25.52,26.44-33.65,7.53-4.92,27.79-13.24,28.49,3.04,.28,6.48-4.27,8.7-9.39,10.73-7.6,3.01-13.75,5.99-19.03,12.47-9.1,11.17-11.64,24.6-8,38.67,3.71,14.33,15.7,24.29,29.17,28.23,5.89,1.72,3.27,13.8,3.27,18.36,0,9.42,.09,18.84,.32,28.26,.11,4.69,2.02,13.49-1.5,17.47-3.88,4.39-13.34,.81-17.82-.53-15.17-4.52-28.89-11.38-41.28-21.47-11.09-9.03-19.9-19.73-26.85-32.42-3.51-6.41-6.38-13.18-8.43-20.22-1.01-3.44-2.08-7.08-2.42-10.67-.23-2.41,.18-6.84-2.69-7.83-2.29,5.69,1.65,15.11,3.32,20.66,2.28,7.56,5.39,14.86,9.23,21.73,7.18,12.83,16.85,23.92,28.46,32.7,12.75,9.63,31.06,18.46,43.23,21.03s16.15,.08,16.73,5.47c.79,7.42,.24,15.01,0,22.44-.21,6.28-.33,12.57-.4,18.85-.03,2.67-.06,5.38,.29,8.03,.12,.9,.09,2.07,.88,2.18s3.76,.11,5.65,.11c90.57,0,164-73.43,164-164Z"/>
    <path class="cls-2" d="M158.56,330.47c-.09-9.12-.06-18.23-.32-27.34-.12-4.22-.28-8.44-.47-12.66-2.58-2.2-6.19-2.53-9.35-3.19-7.39-1.54-14.3-3.75-21.33-6.54-6.03-2.39-11.06-6.27-16.88-9.11-1.6-.78-6.15-3.93-7.36-4.93-3.44-2.86-6.8-5.94-10.05-9.02-11.48-10.88-22.11-24.54-28.47-39.27-1.47-3.4-2.6-6.95-3.98-10.39-1.17-2.92-.93-6.46-2.41-9.13-2.53-4.54-3-13.99-1.25-18.96,1.8-5.14,6.75-7.57,11.89-6.2,6.14,1.63,7.45,8.97,7.97,14.5,1.18,12.48,7.05,25.38,13.58,35.87,13.11,21.06,33.89,35.07,57.02,42.14,2.99,.91,7.34,3.01,9.06,2.42s1.81-6,1.69-8.91c-.37-8.79-.14-17.61-.44-26.41-.13-3.91,.33-9.47-.21-11.75s-5.93-3.62-8.05-4.79c-6.58-3.64-12.2-8.48-16.63-14.67-4.48-6.26-7.69-13.49-9.18-21.11-1.84-9.45-.19-17.62,2.39-26.63,2.18-7.61,7.69-14.69,13.34-19.92,3-2.78,6.31-5.21,9.82-7.28,1.05-.15,3.17-1.87,5.81-2.84,2.37-.87,5.35-.93,5.09-1.95-.54-2.15-6.9,.44-8.75,1.4-3.29,1.7-6.4,3.72-9.35,5.98-5.91,4.52-10.88,9.67-14.68,16.18-7.59,12.99-8.91,29.6-3.87,43.77,5.14,14.45,14.98,22.6,27.4,30.29,9.12,5.65,2.09,21.87-8.17,17.93-2.88-1.1-10.2-5.76-11.39-6.51-1.41-.89-2.63-2.11-3.89-3.19-5.66-4.85-10.5-10.5-14.57-16.81-4.05-6.28-7.21-13.14-9.3-20.36-.49-1.68-.34-5.78-1.96-6.81-3.52-2.24-.54,8.32-.21,9.32,5,14.86,13.04,27.22,25.2,36.92,5.47,4.37,11.51,7.98,17.91,10.72,2.94,1.25,7.23,2.13,8.99,5.06,1.71,2.83,1.98,6.34,.91,9.46-5.18,15.01-26.61,.59-34.36-4.63-12.15-8.19-23.26-19.9-30.39-32.9-7.65-13.96-11.44-30.03-11.91-46-.23-7.88,1.01-15.7,3.15-23.25,2.12-7.5,4.62-16.29,8.71-22.92,14.97-24.22,37.33-40.6,64.38-47.28,6.07-1.5,12.78-1.45,15.52,5.39,2.66,6.62-1.3,12.08-7.43,14.08-6.35,2.07-12.56,2.79-18.78,5.56-6.39,2.85-12.51,6.39-17.99,10.81-6.98,5.64-15.6,16.61-17.83,20.84s-9.56,25.1-6.27,25c2.28,.03,3.38-11.79,5.81-17.36,2.5-5.72,5.73-11.1,9.57-15.98,7.85-9.94,17.99-17.71,29.67-22.19,25.5-9.78,54.58-5.49,75.05,13.37,8.88,8.19,16.14,18.57,20.11,30.17,1.66,4.86,4.44,11.58,1.75,16.52-2.04,3.74-6.49,5.73-10.57,5.23-6.04-.73-6.96-5.68-7.98-10.89-1.12-5.78-4.37-13.47-8.12-17.9-4.51-5.32-9.5-9.77-15.11-13.84-3.57-2.58-16.25-7.35-16.34-5.41s4.87,2.46,6.68,3.23c2.69,1.14,5.31,2.46,7.81,3.99,5.18,3.16,9.86,7.2,13.61,12.04,7.75,10,11.22,23.31,10.21,35.98-1.31,16.35-11.29,29.42-24.17,38.21-2.35,1.6-5.38,2.83-8.13,3.59-3.08,.85-2,3.51,1.08,2.57,6.04-1.85,12.41-6.33,17.09-10.56,4.59-4.15,8.39-9.18,11.19-14.76,1.45-2.9,2.63-5.94,3.55-9.05,.95-3.22,.84-7.74,3.23-10.17,3.08-3.13,8-3.3,11.7-1.25,5.55,3.08,5.65,9.07,4.09,14.66-4.01,14.41-12.23,27.94-23.72,37.34-5.86,4.8-12.59,8.52-19.4,11.68-2.26,1.05-4.58,1.18-6.95,1.88-.75,.22-5.3,2.63-2.2,3.01,4.63,.57,11.15-2.96,15.09-4.92,6.89-3.41,13.13-8.03,18.81-13.26,11.62-10.73,19-24.83,22.17-40.47,6.48-32.02-11.16-65.6-39.31-79.86-6.16-3.12-12.62-5.12-19.32-6.54-5.96-1.27-10.96-2.84-12.71-9.35-1.77-6.57,3.2-11.91,9.53-12.18,6.76-.29,15.04,2.59,21.38,4.84,3.13,1.11,6.49,3.3,9.61,4.71,3.54,1.59,6.88,3.64,10.11,5.81,7.06,4.76,13.6,10.44,19.2,16.93,9.88,11.45,17.03,25.46,20.61,40.3,.63,2.63,.48,5.82,1.64,8.27,1.96,4.13,2.98-.27,2.21-2.66-2.52-7.87-3.77-15.54-7.08-23.25-5.87-13.64-15.96-27.33-28.04-35.86-6.01-4.24-11.62-8.61-18.26-11.87-5.98-2.93-15.34-7.1-20.18-8.4s-6.51-.85-10.12-1.1c-3.73-.26-7.5-.42-11.23-.54-8.09-.26-16.3,.52-24.21,2.33-14.43,3.31-27.42,10.8-39.03,20-5.82,4.61-11.21,9.61-15.81,15.51-4.87,6.26-8.06,12.81-11.78,19.69-3.5,6.48-5.26,13.78-6.62,21-1.34,7.12-2.23,14.76-10.55,15.81-18.71,2.36-7.35-29.17-4.22-37.5,3.88-10.34,9.17-20.18,15.79-28.95,5.9-7.82,19.77-21.4,19.77-21.4,0,0,9.58-6.75,14.14-9.5,4.84-2.92,9.89-5.47,15.06-7.69,5.47-2.35,11.09-4.33,16.81-5.92,3.22-.9,6.48-1.68,9.76-2.32,2.45-.48,8.02,.09,7.01-1.86s-15.64,1.23-20.33,2.81c-4.69,1.59-14.81,5.16-22.12,8.59-13.84,6.49-26.24,17.18-36.47,28.65-21.92,24.58-32.39,57.96-28.7,90.96,.83,7.43,2.29,14.79,4.44,21.93,2.32,7.71,5.89,13.97,9.34,21.07,3.48,7.16,8.1,13.31,13.04,19.48,4.99,6.23,10.71,13.21,17.27,17.68,13.44,9.16,26.69,17.97,42.53,22.16,5,1.33,12.28,1.43,14.9,6.87,2.08,4.31,1.03,11.16-3.25,13.75-3.39,2.05-7.33,1.35-10.91,.32-2.94-.84-16.95-5.28-20.24-6.7-3.95-1.72-7.97-3.27-11.85-5.15-14.38-7-27.76-17.82-38.74-29.53-10.29-10.98-19.72-25.02-25.73-38.98-3.13-7.27-5.81-14.77-7.82-22.45-2.05-7.83-1.1-17.31-4.38-24.62-4.07,1.71,.17,15.88,.82,19.18,1.65,8.33,4.09,16.43,7.35,24.25,5.87,14.12,13.81,27.34,23.62,38.96,9.44,11.19,21.32,22.6,34.15,29.57,3.56,1.93,7.08,3.93,10.64,5.85,3.36,1.81,6.61,3,10.1,4.58,7.4,3.33,14.99,5.68,22.71,8.04,5.51,1.68,11.53,.62,14.18,7.4,2.19,5.59-3.04,13.63-8.51,14.07-6.93,.56-35.38-10.47-42.4-13.75-15.38-7.16-29.63-16.5-42.21-28.05-11.28-10.35-18.15-18.33-29.67-36.76s-14.58-31.07-18.64-45.8c-2.2-7.97-2.33-16.95-2.85-25.18-.54-8.68-.5-17.4,.23-26.07,1.26-14.99,4.3-31,10.1-44.89,6.09-14.58,13.62-30.24,24.73-41.52,2.52-2.56,4.29-5.5,6.88-7.97,2.84-2.71,5.72-5.38,8.64-7.99,6.42-5.74,13.07-11.22,20.06-16.23,6.22-4.45,13.03-9.41,19.9-12.71,7.57-3.64,15.77-6.19,23.73-8.71,5.21-1.65,10.18-3.24,15.39-4.26l-21.2,2.14-32.68,16.21s.03,1.68-2.05,2.49c-1.5,.96-6.46,2.94-6.46,2.94,0,0,.08,1.71-1.11,2.18-2.39,1.71-21.31,15.94-21.49,16.53-.78,.94,.38,1.68-.45,2.32C26.28,87.53,8.5,127.94,8.5,172.5c0,85.57,65.53,155.81,149.14,163.32,.93-1.22,.94-3.23,.92-5.35Z"/>
    <path class="cls-2" d="M140.56,13.16c.08-.02,.16-.03,.24-.05l22.2-4.34c-15.2,.87-29.84,3.8-43.65,8.53l21.2-4.14Z"/>
  </g>
</svg>