<?xml version="1.0" encoding="UTF-8"?>
<svg id="Layer_2" data-name="Layer 2" xmlns="http://www.w3.org/2000/svg" viewBox="0 0 80.4 80.26">
  <defs>
    <style>
      .cls-1 {
        fill-rule: evenodd;
        stroke: #000;
        stroke-miterlimit: 10;
      }
    </style>
  </defs>
  <g id="Layer_1-2" data-name="Layer 1">
    <path class="cls-1" d="M79.9,40.2C79.9,18.28,62.13,.5,40.2,.5S.5,18.28,.5,40.2c0,20.36,15.33,37.14,35.08,39.43,.05-6.45,.05-12.9-.13-19.35-3.47-1.78-3.48,2.8-3.88,4.61-.42,1.9-1.4,3.63-2.89,4.87-3.11,2.58-7.68,2.71-11.29,1.25-3.9-1.58-6.27-4.92-6.51-9.2-.16-2.78,.42-5.7,2.18-7.9,1.89-2.36,5.69-2.13,7.03-4.05,2.24-3.2-1.74-3.49-3.73-2.35-2.69,1.55-6.05,1.14-8.67-.36-5.17-2.96-7.04-8.77-5.06-14.36,1.79-5.04,6.32-7.93,11.53-7.08,2.65,.43,3.65,2.18,5.58,3.77,2.37,1.97,5.2-2.05,2.11-3.33-9.8-4.06-5.91-20.46,4.1-21.65,5.37-.64,12.22,3.76,12.36,9.77,.04,1.57-1.17,4.34,.03,5.68,2.24,2.49,3.34-2.04,3.5-3.34,.55-4.7,.67-8.34,5.43-10.53,4.09-1.88,9.65-1.56,12.99,1.73,3.37,3.32,3.77,10.18,.99,13.98-1.45,1.98-3.65,3.21-5.82,4.17-1.3,4.41,3.96,3.41,5.67,1.41,3.56-4.15,11.24-1.46,14.62,1.76,3.88,3.71,3.26,10.15,.51,14.31-2.51,3.8-8.18,6.97-12.56,4.38-1.14-.68-6.43-3.01-4.7,1.11,1.18,2.81,3.8,.76,6.07,2.19,9.46,6.01,3.4,21.52-7.32,20.31-4.38-.49-10.02-4.5-9.79-8.78,.03-.62,.64-1.63,.49-1.86s-.29-.44-.43-.62c-.39-.51-.74-.83-1.05-.98-.56-.29-1-.07-1.34,.45-1.03,1.55-1.23,5.76-1.29,7.01-.22,4.35-.27,8.7-.25,13.05,20.11-1.94,35.84-18.89,35.84-39.51Z"/>
  </g>
</svg>